# xmcd
#
# Track frame offsets:
#	200
#	18517
#	39447
#	55920
#	84290
#	103937
#	121285
#	139735
#	161897
#	188880
#
# Disc length: 2787 seconds
#
# Revision: 2
# Processed by: cddbd v1.5.1PL2 Copyright (c) Steve Scherf et al.
# Submitted via: audiograbber 1.83.01
#
DISCID=830ae10a
DTITLE=Jimmy Thackery And The Drivers - Empty Arms Motel
DYEAR=1992
DGENRE=Blues
TTITLE0=Paying The Cost To Be The Boss
TTITLE1=Rude Mood
TTITLE2=Empty Arms Motel
TTITLE3=Lickin' Gravy
TTITLE4=I Can Tell
TTITLE5=Getting Tired Of Waiting
TTITLE6=Honey Hush
TTITLE7=Love To Ride
TTITLE8=Red House
TTITLE9=Last Night
EXTD=
EXTT0=
EXTT1=
EXTT2=
EXTT3=
EXTT4=
EXTT5=
EXTT6=
EXTT7=
EXTT8=
EXTT9=
PLAYORDER=
